<svg width="144" height="35" viewBox="0 0 144 10" fill="none" xmlns="http://www.w3.org/2000/svg">
<path d="M28.3926 12H22.5098V3.59766H24.1914V10.3184H28.3926V12Z" fill="#2174FB"/>
<path d="M35.6055 8.64258C35.6055 9.10742 35.5176 9.54492 35.3418 9.95508C35.166 10.3613 34.9258 10.7168 34.6211 11.0215C34.3164 11.3223 33.959 11.5605 33.5488 11.7363C33.1426 11.9121 32.707 12 32.2422 12C31.7773 12 31.3398 11.9121 30.9297 11.7363C30.5234 11.5605 30.168 11.3223 29.8633 11.0215C29.5625 10.7168 29.3242 10.3613 29.1484 9.95508C28.9727 9.54492 28.8848 9.10742 28.8848 8.64258V3.59766H30.5605V8.64258C30.5605 8.87305 30.6035 9.08984 30.6895 9.29297C30.7793 9.49609 30.9004 9.67383 31.0527 9.82617C31.2051 9.97852 31.3828 10.0996 31.5859 10.1895C31.793 10.2754 32.0117 10.3184 32.2422 10.3184C32.4727 10.3184 32.6895 10.2754 32.8926 10.1895C33.0996 10.0996 33.2793 9.97852 33.4316 9.82617C33.584 9.67383 33.7031 9.49609 33.7891 9.29297C33.8789 9.08984 33.9238 8.87305 33.9238 8.64258V3.59766H35.6055V8.64258Z" fill="#2174FB"/>
<path d="M43.7734 11.1387C43.3828 11.4746 42.9453 11.7324 42.4609 11.9121C41.9766 12.0918 41.4746 12.1816 40.9551 12.1816C40.5566 12.1816 40.1719 12.1289 39.8008 12.0234C39.4336 11.9219 39.0879 11.7773 38.7637 11.5898C38.4434 11.3984 38.1504 11.1699 37.8848 10.9043C37.6191 10.6387 37.3906 10.3457 37.1992 10.0254C37.0117 9.70117 36.8652 9.35547 36.7598 8.98828C36.6582 8.61719 36.6074 8.23242 36.6074 7.83398C36.6074 7.43555 36.6582 7.05078 36.7598 6.67969C36.8652 6.30859 37.0117 5.96289 37.1992 5.64258C37.3906 5.31836 37.6191 5.02344 37.8848 4.75781C38.1504 4.49219 38.4434 4.26562 38.7637 4.07812C39.0879 3.88672 39.4336 3.74023 39.8008 3.63867C40.1719 3.5332 40.5566 3.48047 40.9551 3.48047C41.4746 3.48047 41.9766 3.57031 42.4609 3.75C42.9453 3.92578 43.3828 4.18359 43.7734 4.52344L42.8828 5.98828C42.6367 5.72266 42.3457 5.51953 42.0098 5.37891C41.6738 5.23438 41.3223 5.16211 40.9551 5.16211C40.584 5.16211 40.2363 5.23242 39.9121 5.37305C39.5879 5.51367 39.3047 5.70508 39.0625 5.94727C38.8203 6.18555 38.6289 6.46875 38.4883 6.79688C38.3477 7.12109 38.2773 7.4668 38.2773 7.83398C38.2773 8.20117 38.3477 8.54688 38.4883 8.87109C38.6289 9.19141 38.8203 9.47266 39.0625 9.71484C39.3047 9.95703 39.5879 10.1484 39.9121 10.2891C40.2363 10.4297 40.584 10.5 40.9551 10.5C41.3223 10.5 41.6738 10.4297 42.0098 10.2891C42.3457 10.1445 42.6367 9.93945 42.8828 9.67383L43.7734 11.1387Z" fill="#2174FB"/>
<path d="M46.4336 12H44.752V3.59766H46.4336V7.79883L49.5625 3.59766H51.4727L48.8184 7.14258L51.4727 12H49.5625L47.7168 8.60156L46.4336 10.3184V12Z" fill="#2174FB"/>
<path d="M56.0312 12H54.3555V9.36914C53.9844 9.27539 53.6426 9.125 53.3301 8.91797C53.0215 8.71094 52.7559 8.46484 52.5332 8.17969C52.3105 7.89062 52.1367 7.57227 52.0117 7.22461C51.8906 6.87305 51.8301 6.50391 51.8301 6.11719V3.59766H53.5117V6.11719C53.5117 6.34766 53.5547 6.56641 53.6406 6.77344C53.7305 6.97656 53.8516 7.1543 54.0039 7.30664C54.1562 7.45898 54.334 7.58008 54.5371 7.66992C54.7441 7.75586 54.9629 7.79883 55.1934 7.79883C55.4238 7.79883 55.6406 7.75586 55.8438 7.66992C56.0508 7.58008 56.2305 7.45898 56.3828 7.30664C56.5352 7.1543 56.6543 6.97656 56.7402 6.77344C56.8301 6.56641 56.875 6.34766 56.875 6.11719V3.59766H58.5508V6.11719C58.5508 6.50391 58.4883 6.87305 58.3633 7.22461C58.2422 7.57227 58.0703 7.89062 57.8477 8.17969C57.625 8.46484 57.3594 8.71094 57.0508 8.91797C56.7422 9.125 56.4023 9.27539 56.0312 9.36914V12Z" fill="#2174FB"/>
<path d="M62.5645 6.11719C62.5645 5.76953 62.6309 5.44336 62.7637 5.13867C62.8965 4.83398 63.0762 4.56836 63.3027 4.3418C63.5332 4.11133 63.8008 3.92969 64.1055 3.79688C64.4102 3.66406 64.7363 3.59766 65.084 3.59766H68.9395V5.2793H65.084C64.9668 5.2793 64.8574 5.30078 64.7559 5.34375C64.6543 5.38672 64.5645 5.44727 64.4863 5.52539C64.4121 5.59961 64.3535 5.6875 64.3105 5.78906C64.2676 5.89062 64.2461 6 64.2461 6.11719C64.2461 6.23438 64.2676 6.3457 64.3105 6.45117C64.3535 6.55273 64.4121 6.64258 64.4863 6.7207C64.5645 6.79492 64.6543 6.85352 64.7559 6.89648C64.8574 6.93945 64.9668 6.96094 65.084 6.96094H66.7656C67.1133 6.96094 67.4395 7.02734 67.7441 7.16016C68.0527 7.28906 68.3203 7.46875 68.5469 7.69922C68.7773 7.92578 68.957 8.19336 69.0859 8.50195C69.2188 8.80664 69.2852 9.13281 69.2852 9.48047C69.2852 9.82812 69.2188 10.1543 69.0859 10.459C68.957 10.7637 68.7773 11.0312 68.5469 11.2617C68.3203 11.4883 68.0527 11.668 67.7441 11.8008C67.4395 11.9336 67.1133 12 66.7656 12H63.0332V10.3184H66.7656C66.8828 10.3184 66.9922 10.2969 67.0938 10.2539C67.1953 10.2109 67.2832 10.1523 67.3574 10.0781C67.4355 10 67.4961 9.91016 67.5391 9.80859C67.582 9.70703 67.6035 9.59766 67.6035 9.48047C67.6035 9.36328 67.582 9.25391 67.5391 9.15234C67.4961 9.05078 67.4355 8.96289 67.3574 8.88867C67.2832 8.81055 67.1953 8.75 67.0938 8.70703C66.9922 8.66406 66.8828 8.64258 66.7656 8.64258H65.084C64.7363 8.64258 64.4102 8.57617 64.1055 8.44336C63.8008 8.31055 63.5332 8.13086 63.3027 7.9043C63.0762 7.67383 62.8965 7.40625 62.7637 7.10156C62.6309 6.79297 62.5645 6.46484 62.5645 6.11719Z" fill="#2174FB"/>
<path d="M73.8027 12H72.127V5.2793H69.6016V3.59766H76.3223V5.2793H73.8027V12Z" fill="#2174FB"/>
<path d="M85.1758 7.83398C85.1758 8.23242 85.123 8.61719 85.0176 8.98828C84.916 9.35547 84.7715 9.70117 84.584 10.0254C84.3965 10.3457 84.1699 10.6387 83.9043 10.9043C83.6387 11.1699 83.3457 11.3984 83.0254 11.5898C82.7051 11.7773 82.3594 11.9219 81.9883 12.0234C81.6172 12.1289 81.2324 12.1816 80.834 12.1816C80.4355 12.1816 80.0508 12.1289 79.6797 12.0234C79.3125 11.9219 78.9668 11.7773 78.6426 11.5898C78.3223 11.3984 78.0293 11.1699 77.7637 10.9043C77.498 10.6387 77.2695 10.3457 77.0781 10.0254C76.8906 9.70117 76.7441 9.35547 76.6387 8.98828C76.5371 8.61719 76.4863 8.23242 76.4863 7.83398C76.4863 7.43555 76.5371 7.05078 76.6387 6.67969C76.7441 6.30859 76.8906 5.96289 77.0781 5.64258C77.2695 5.32227 77.498 5.0293 77.7637 4.76367C78.0293 4.49805 78.3223 4.27148 78.6426 4.08398C78.9668 3.89648 79.3125 3.75195 79.6797 3.65039C80.0508 3.54492 80.4355 3.49219 80.834 3.49219C81.2324 3.49219 81.6172 3.54492 81.9883 3.65039C82.3594 3.75195 82.7051 3.89648 83.0254 4.08398C83.3457 4.27148 83.6387 4.49805 83.9043 4.76367C84.1699 5.0293 84.3965 5.32227 84.584 5.64258C84.7715 5.96289 84.916 6.30859 85.0176 6.67969C85.123 7.05078 85.1758 7.43555 85.1758 7.83398ZM83.5059 7.83398C83.5059 7.4668 83.4355 7.12109 83.2949 6.79688C83.1543 6.46875 82.9629 6.18555 82.7207 5.94727C82.4824 5.70508 82.1992 5.51367 81.8711 5.37305C81.5469 5.23242 81.2012 5.16211 80.834 5.16211C80.4629 5.16211 80.1152 5.23242 79.791 5.37305C79.4668 5.51367 79.1836 5.70508 78.9414 5.94727C78.6992 6.18555 78.5078 6.46875 78.3672 6.79688C78.2266 7.12109 78.1562 7.4668 78.1562 7.83398C78.1562 8.20117 78.2266 8.54688 78.3672 8.87109C78.5078 9.19141 78.6992 9.47266 78.9414 9.71484C79.1836 9.95703 79.4668 10.1484 79.791 10.2891C80.1152 10.4297 80.4629 10.5 80.834 10.5C81.2012 10.5 81.5469 10.4297 81.8711 10.2891C82.1992 10.1484 82.4824 9.95703 82.7207 9.71484C82.9629 9.47266 83.1543 9.19141 83.2949 8.87109C83.4355 8.54688 83.5059 8.20117 83.5059 7.83398Z" fill="#2174FB"/>
<path d="M87.9648 5.2793V8.64258H89.6465C89.877 8.64258 90.0938 8.59961 90.2969 8.51367C90.5 8.42383 90.6777 8.30273 90.8301 8.15039C90.9824 7.99805 91.1016 7.82031 91.1875 7.61719C91.2773 7.41016 91.3223 7.19141 91.3223 6.96094C91.3223 6.73047 91.2773 6.51367 91.1875 6.31055C91.1016 6.10352 90.9824 5.92383 90.8301 5.77148C90.6777 5.61914 90.5 5.5 90.2969 5.41406C90.0938 5.32422 89.877 5.2793 89.6465 5.2793H87.9648ZM87.9648 12H86.2832V3.59766H89.6465C89.9551 3.59766 90.252 3.63867 90.5371 3.7207C90.8223 3.79883 91.0879 3.91211 91.334 4.06055C91.584 4.20508 91.8105 4.38086 92.0137 4.58789C92.2207 4.79102 92.3965 5.01758 92.541 5.26758C92.6895 5.51758 92.8027 5.78516 92.8809 6.07031C92.9629 6.35547 93.0039 6.65234 93.0039 6.96094C93.0039 7.25 92.9668 7.53125 92.8926 7.80469C92.8223 8.07812 92.7188 8.33789 92.582 8.58398C92.4492 8.83008 92.2852 9.05664 92.0898 9.26367C91.8945 9.4707 91.6758 9.65039 91.4336 9.80273L92.3652 12H90.5781L89.8457 10.3066L87.9648 10.3184V12Z" fill="#2174FB"/>
<path d="M99.8711 12H94.1113V3.59766H99.8711V5.2793H95.793V6.96094H98.5527V8.64258H95.793V10.3184H99.8711V12Z" fill="#2174FB"/>
<g filter="url(#filter0_d_106_36)">
<path fill-rule="evenodd" clip-rule="evenodd" d="M118.305 0L121.45 1.24156L124 3.92327L115 15L106 3.92327L108.55 1.24156L111.695 0H118.305ZM120.542 5.72441L122.918 4.03537L121.312 2.02623L118.651 3.19221L120.542 5.72441ZM119.393 6.22553H110.607L112.408 3.28712H117.592L119.393 6.22553ZM120.016 1.51196L117.585 0.54912L112.388 0.548471L109.984 1.51196L112.425 2.56905H117.575L120.016 1.51196ZM108.659 2.02623L111.319 3.19221L109.428 5.72441L107.052 4.03537L108.659 2.02623ZM109.541 6.79396L108.019 5.69622L113.179 12.2447L109.541 6.79396ZM110.819 7.12079H119.181L115 13.9701L110.819 7.12079ZM120.429 6.79396L116.791 12.2447L121.951 5.69622L120.429 6.79396Z" fill="#2174FB"/>
</g>
<g filter="url(#filter1_d_106_36)">
<path fill-rule="evenodd" clip-rule="evenodd" d="M12.3049 0L15.4495 1.24156L18 3.92327L9.00048 15L0 3.92327L2.55048 1.24156L5.69511 0H12.3049ZM14.5421 5.72441L16.9179 4.03537L15.3116 2.02623L12.6513 3.19221L14.5421 5.72441ZM13.3926 6.22553H4.60739L6.40753 3.28712H11.5925L13.3926 6.22553ZM14.016 1.51196L11.5853 0.54912L6.38777 0.548471L3.98407 1.51196L6.42474 2.56905H11.5753L14.016 1.51196ZM2.65872 2.02623L5.31897 3.19221L3.42816 5.72441L1.0524 4.03537L2.65872 2.02623ZM3.54126 6.79396L2.01898 5.69622L7.17908 12.2447L3.54126 6.79396ZM4.81879 7.12079H13.1812L9.00048 13.9701L4.81879 7.12079ZM14.4291 6.79396L10.7912 12.2447L15.9513 5.69622L14.4291 6.79396Z" fill="#2174FB"/>
</g>
<defs>
<filter id="filter0_d_106_36" x="106" y="0" width="38" height="35" filterUnits="userSpaceOnUse" color-interpolation-filters="sRGB">
<feFlood flood-opacity="0" result="BackgroundImageFix"/>
<feColorMatrix in="SourceAlpha" type="matrix" values="0 0 0 0 0 0 0 0 0 0 0 0 0 0 0 0 0 0 127 0" result="hardAlpha"/>
<feOffset dx="10" dy="10"/>
<feGaussianBlur stdDeviation="5"/>
<feColorMatrix type="matrix" values="0 0 0 0 0 0 0 0 0 0 0 0 0 0 0 0 0 0 0.2 0"/>
<feBlend mode="normal" in2="BackgroundImageFix" result="effect1_dropShadow_106_36"/>
<feBlend mode="normal" in="SourceGraphic" in2="effect1_dropShadow_106_36" result="shape"/>
</filter>
<filter id="filter1_d_106_36" x="0" y="0" width="38" height="35" filterUnits="userSpaceOnUse" color-interpolation-filters="sRGB">
<feFlood flood-opacity="0" result="BackgroundImageFix"/>
<feColorMatrix in="SourceAlpha" type="matrix" values="0 0 0 0 0 0 0 0 0 0 0 0 0 0 0 0 0 0 127 0" result="hardAlpha"/>
<feOffset dx="10" dy="10"/>
<feGaussianBlur stdDeviation="5"/>
<feColorMatrix type="matrix" values="0 0 0 0 0 0 0 0 0 0 0 0 0 0 0 0 0 0 0.2 0"/>
<feBlend mode="normal" in2="BackgroundImageFix" result="effect1_dropShadow_106_36"/>
<feBlend mode="normal" in="SourceGraphic" in2="effect1_dropShadow_106_36" result="shape"/>
</filter>
</defs>
</svg>
